<svg xmlns="http://www.w3.org/2000/svg" viewBox="0 0 200 200" fill="none">
  <!-- Hexagon particle grid -->
  <!-- Hexagon helper: center x,y, size s — flat-top hexagons -->
  <!-- Row 1 -->
  <polygon points="40,20 56,11 72,20 72,38 56,47 40,38" stroke="currentColor" stroke-width="1" fill="none" opacity="0.3"/>
  <polygon points="80,20 96,11 112,20 112,38 96,47 80,38" stroke="currentColor" stroke-width="1" fill="none" opacity="0.5"/>
  <polygon points="120,20 136,11 152,20 152,38 136,47 120,38" stroke="currentColor" stroke-width="1" fill="none" opacity="0.3"/>
  <!-- Row 2 (offset) -->
  <polygon points="20,55 36,46 52,55 52,73 36,82 20,73" stroke="currentColor" stroke-width="1" fill="none" opacity="0.4"/>
  <polygon points="60,55 76,46 92,55 92,73 76,82 60,73" stroke="currentColor" stroke-width="1" fill="none" opacity="0.6"/>
  <polygon points="100,55 116,46 132,55 132,73 116,82 100,73" stroke="currentColor" stroke-width="1" fill="none" opacity="0.6"/>
  <polygon points="140,55 156,46 172,55 172,73 156,82 140,73" stroke="currentColor" stroke-width="1" fill="none" opacity="0.4"/>
  <!-- Row 3 -->
  <polygon points="40,90 56,81 72,90 72,108 56,117 40,108" stroke="currentColor" stroke-width="1.5" fill="none" opacity="0.7"/>
  <polygon points="80,90 96,81 112,90 112,108 96,117 80,108" stroke="currentColor" stroke-width="2" fill="none" opacity="0.9"/>
  <polygon points="120,90 136,81 152,90 152,108 136,117 120,108" stroke="currentColor" stroke-width="1.5" fill="none" opacity="0.7"/>
  <!-- Row 4 (offset) -->
  <polygon points="20,125 36,116 52,125 52,143 36,152 20,143" stroke="currentColor" stroke-width="1" fill="none" opacity="0.4"/>
  <polygon points="60,125 76,116 92,125 92,143 76,152 60,143" stroke="currentColor" stroke-width="1" fill="none" opacity="0.6"/>
  <polygon points="100,125 116,116 132,125 132,143 116,152 100,143" stroke="currentColor" stroke-width="1" fill="none" opacity="0.6"/>
  <polygon points="140,125 156,116 172,125 172,143 156,152 140,143" stroke="currentColor" stroke-width="1" fill="none" opacity="0.4"/>
  <!-- Row 5 -->
  <polygon points="40,160 56,151 72,160 72,178 56,187 40,178" stroke="currentColor" stroke-width="1" fill="none" opacity="0.3"/>
  <polygon points="80,160 96,151 112,160 112,178 96,187 80,178" stroke="currentColor" stroke-width="1" fill="none" opacity="0.5"/>
  <polygon points="120,160 136,151 152,160 152,178 136,187 120,178" stroke="currentColor" stroke-width="1" fill="none" opacity="0.3"/>
  <!-- Center hex filled accent -->
  <polygon points="80,90 96,81 112,90 112,108 96,117 80,108" fill="currentColor" opacity="0.08"/>
</svg>
